<mxfile host="app.diagrams.net" modified="2024-04-05T05:18:28.350Z" agent="Mozilla/5.0 (Windows NT 10.0; Win64; x64) AppleWebKit/537.36 (KHTML, like Gecko) Chrome/123.0.0.0 Safari/537.36" etag="d2CbZrpzk-jpMrrzQu2L" version="24.2.2" type="device">
  <diagram name="Page-1" id="lY6kfxsYpBbAq2zofaJl">
    <mxGraphModel dx="1819" dy="620" grid="1" gridSize="10" guides="1" tooltips="1" connect="1" arrows="1" fold="1" page="1" pageScale="1" pageWidth="850" pageHeight="1100" math="0" shadow="0">
      <root>
        <mxCell id="0" />
        <mxCell id="1" parent="0" />
        <mxCell id="8iHQZNITbpbjw60MoTCy-5" style="edgeStyle=orthogonalEdgeStyle;rounded=0;orthogonalLoop=1;jettySize=auto;html=1;exitX=1;exitY=0.5;exitDx=0;exitDy=0;entryX=0;entryY=0.5;entryDx=0;entryDy=0;" parent="1" source="8iHQZNITbpbjw60MoTCy-1" target="8iHQZNITbpbjw60MoTCy-4" edge="1">
          <mxGeometry relative="1" as="geometry" />
        </mxCell>
        <mxCell id="8iHQZNITbpbjw60MoTCy-7" value="vehicle and visitor&lt;div&gt;data are noted&lt;/div&gt;" style="edgeLabel;html=1;align=center;verticalAlign=middle;resizable=0;points=[];" parent="8iHQZNITbpbjw60MoTCy-5" vertex="1" connectable="0">
          <mxGeometry x="-0.1363" relative="1" as="geometry">
            <mxPoint as="offset" />
          </mxGeometry>
        </mxCell>
        <mxCell id="8iHQZNITbpbjw60MoTCy-1" value="0.0&lt;div&gt;Vehicle management system&lt;/div&gt;" style="ellipse;whiteSpace=wrap;html=1;aspect=fixed;" parent="1" vertex="1">
          <mxGeometry x="230" y="130" width="150" height="150" as="geometry" />
        </mxCell>
        <mxCell id="8iHQZNITbpbjw60MoTCy-3" style="edgeStyle=orthogonalEdgeStyle;rounded=0;orthogonalLoop=1;jettySize=auto;html=1;exitX=1;exitY=0.5;exitDx=0;exitDy=0;" parent="1" source="8iHQZNITbpbjw60MoTCy-2" edge="1">
          <mxGeometry relative="1" as="geometry">
            <mxPoint x="140" y="205" as="sourcePoint" />
            <mxPoint x="230" y="205" as="targetPoint" />
          </mxGeometry>
        </mxCell>
        <mxCell id="8iHQZNITbpbjw60MoTCy-6" value="sign up, login, register" style="edgeLabel;html=1;align=center;verticalAlign=middle;resizable=0;points=[];" parent="8iHQZNITbpbjw60MoTCy-3" vertex="1" connectable="0">
          <mxGeometry x="-0.1817" y="2" relative="1" as="geometry">
            <mxPoint x="2" y="-13" as="offset" />
          </mxGeometry>
        </mxCell>
        <mxCell id="8iHQZNITbpbjw60MoTCy-2" value="User" style="rounded=0;whiteSpace=wrap;html=1;" parent="1" vertex="1">
          <mxGeometry x="-20" y="175" width="120" height="60" as="geometry" />
        </mxCell>
        <mxCell id="8iHQZNITbpbjw60MoTCy-4" value="User" style="rounded=0;whiteSpace=wrap;html=1;" parent="1" vertex="1">
          <mxGeometry x="500" y="175" width="120" height="60" as="geometry" />
        </mxCell>
        <mxCell id="8iHQZNITbpbjw60MoTCy-12" style="edgeStyle=orthogonalEdgeStyle;rounded=0;orthogonalLoop=1;jettySize=auto;html=1;" parent="1" source="8iHQZNITbpbjw60MoTCy-10" target="8iHQZNITbpbjw60MoTCy-11" edge="1">
          <mxGeometry relative="1" as="geometry" />
        </mxCell>
        <mxCell id="8iHQZNITbpbjw60MoTCy-13" value="User details" style="edgeLabel;html=1;align=center;verticalAlign=middle;resizable=0;points=[];" parent="8iHQZNITbpbjw60MoTCy-12" vertex="1" connectable="0">
          <mxGeometry x="-0.2342" y="-3" relative="1" as="geometry">
            <mxPoint x="8" y="-3" as="offset" />
          </mxGeometry>
        </mxCell>
        <mxCell id="8iHQZNITbpbjw60MoTCy-10" value="User" style="rounded=0;whiteSpace=wrap;html=1;" parent="1" vertex="1">
          <mxGeometry x="-20" y="340" width="120" height="60" as="geometry" />
        </mxCell>
        <mxCell id="8iHQZNITbpbjw60MoTCy-15" style="edgeStyle=orthogonalEdgeStyle;rounded=0;orthogonalLoop=1;jettySize=auto;html=1;entryX=0;entryY=0.5;entryDx=0;entryDy=0;" parent="1" source="8iHQZNITbpbjw60MoTCy-11" target="8iHQZNITbpbjw60MoTCy-14" edge="1">
          <mxGeometry relative="1" as="geometry" />
        </mxCell>
        <mxCell id="8iHQZNITbpbjw60MoTCy-16" value="vehicle details" style="edgeLabel;html=1;align=center;verticalAlign=middle;resizable=0;points=[];" parent="8iHQZNITbpbjw60MoTCy-15" vertex="1" connectable="0">
          <mxGeometry x="-0.2585" y="-2" relative="1" as="geometry">
            <mxPoint x="6" y="-12" as="offset" />
          </mxGeometry>
        </mxCell>
        <mxCell id="8iHQZNITbpbjw60MoTCy-11" value="1.0&lt;div&gt;USER SIGN IN/UP&lt;/div&gt;" style="ellipse;whiteSpace=wrap;html=1;aspect=fixed;" parent="1" vertex="1">
          <mxGeometry x="210" y="315" width="110" height="110" as="geometry" />
        </mxCell>
        <mxCell id="8iHQZNITbpbjw60MoTCy-18" style="edgeStyle=orthogonalEdgeStyle;rounded=0;orthogonalLoop=1;jettySize=auto;html=1;entryX=0;entryY=0.5;entryDx=0;entryDy=0;" parent="1" source="8iHQZNITbpbjw60MoTCy-14" target="8iHQZNITbpbjw60MoTCy-17" edge="1">
          <mxGeometry relative="1" as="geometry" />
        </mxCell>
        <mxCell id="8iHQZNITbpbjw60MoTCy-19" value="visitor details" style="edgeLabel;html=1;align=center;verticalAlign=middle;resizable=0;points=[];" parent="8iHQZNITbpbjw60MoTCy-18" vertex="1" connectable="0">
          <mxGeometry x="-0.2712" y="1" relative="1" as="geometry">
            <mxPoint as="offset" />
          </mxGeometry>
        </mxCell>
        <mxCell id="8iHQZNITbpbjw60MoTCy-14" value="2.0&lt;div&gt;register vehicles&lt;/div&gt;" style="ellipse;whiteSpace=wrap;html=1;aspect=fixed;" parent="1" vertex="1">
          <mxGeometry x="410" y="315" width="110" height="110" as="geometry" />
        </mxCell>
        <mxCell id="8iHQZNITbpbjw60MoTCy-21" style="edgeStyle=orthogonalEdgeStyle;rounded=0;orthogonalLoop=1;jettySize=auto;html=1;entryX=0;entryY=0.5;entryDx=0;entryDy=0;" parent="1" source="8iHQZNITbpbjw60MoTCy-17" target="a99q0NmHQgWk5nQDxp5Y-1" edge="1">
          <mxGeometry relative="1" as="geometry">
            <mxPoint x="909.9999999999927" y="365.0000000000001" as="targetPoint" />
          </mxGeometry>
        </mxCell>
        <mxCell id="8iHQZNITbpbjw60MoTCy-22" value="vehicles data" style="edgeLabel;html=1;align=center;verticalAlign=middle;resizable=0;points=[];" parent="8iHQZNITbpbjw60MoTCy-21" vertex="1" connectable="0">
          <mxGeometry x="-0.2162" y="-1" relative="1" as="geometry">
            <mxPoint as="offset" />
          </mxGeometry>
        </mxCell>
        <mxCell id="8iHQZNITbpbjw60MoTCy-17" value="3.0&lt;div&gt;visitor form&lt;/div&gt;" style="ellipse;whiteSpace=wrap;html=1;aspect=fixed;" parent="1" vertex="1">
          <mxGeometry x="610" y="310" width="110" height="110" as="geometry" />
        </mxCell>
        <mxCell id="8iHQZNITbpbjw60MoTCy-20" value="User" style="rounded=0;whiteSpace=wrap;html=1;" parent="1" vertex="1">
          <mxGeometry x="1155" y="340" width="120" height="60" as="geometry" />
        </mxCell>
        <mxCell id="8iHQZNITbpbjw60MoTCy-23" value="VERIFY&lt;div&gt;&lt;br&gt;&lt;/div&gt;" style="edgeLabel;html=1;align=center;verticalAlign=middle;resizable=0;points=[];" parent="1" vertex="1" connectable="0">
          <mxGeometry x="650" y="650" as="geometry">
            <mxPoint x="6" y="-42" as="offset" />
          </mxGeometry>
        </mxCell>
        <mxCell id="8iHQZNITbpbjw60MoTCy-24" value="1.1&lt;div&gt;USER SIGN UP&lt;/div&gt;" style="ellipse;whiteSpace=wrap;html=1;aspect=fixed;" parent="1" vertex="1">
          <mxGeometry x="260" y="583.75" width="110" height="110" as="geometry" />
        </mxCell>
        <mxCell id="8iHQZNITbpbjw60MoTCy-25" value="1.2&lt;div&gt;USER SIGN IN&lt;/div&gt;" style="ellipse;whiteSpace=wrap;html=1;aspect=fixed;" parent="1" vertex="1">
          <mxGeometry x="485" y="580" width="107.5" height="107.5" as="geometry" />
        </mxCell>
        <mxCell id="8iHQZNITbpbjw60MoTCy-26" value="" style="endArrow=classic;html=1;rounded=0;exitX=1;exitY=0.5;exitDx=0;exitDy=0;entryX=-0.004;entryY=0.4;entryDx=0;entryDy=0;entryPerimeter=0;" parent="1" source="8iHQZNITbpbjw60MoTCy-39" target="8iHQZNITbpbjw60MoTCy-24" edge="1">
          <mxGeometry width="50" height="50" relative="1" as="geometry">
            <mxPoint x="144" y="632" as="sourcePoint" />
            <mxPoint x="450" y="523.75" as="targetPoint" />
            <Array as="points" />
          </mxGeometry>
        </mxCell>
        <mxCell id="8iHQZNITbpbjw60MoTCy-27" value="enter user details&lt;div&gt;&amp;nbsp;and register&lt;/div&gt;" style="edgeLabel;html=1;align=center;verticalAlign=middle;resizable=0;points=[];" parent="8iHQZNITbpbjw60MoTCy-26" vertex="1" connectable="0">
          <mxGeometry x="-0.0187" y="4" relative="1" as="geometry">
            <mxPoint x="-2" y="-22" as="offset" />
          </mxGeometry>
        </mxCell>
        <mxCell id="8iHQZNITbpbjw60MoTCy-28" value="ACCOUNT CREATED" style="edgeLabel;html=1;align=center;verticalAlign=middle;resizable=0;points=[];" parent="8iHQZNITbpbjw60MoTCy-26" vertex="1" connectable="0">
          <mxGeometry x="0.0452" relative="1" as="geometry">
            <mxPoint x="138" y="-61" as="offset" />
          </mxGeometry>
        </mxCell>
        <mxCell id="8iHQZNITbpbjw60MoTCy-29" value="" style="endArrow=classic;html=1;rounded=0;exitX=1;exitY=0.5;exitDx=0;exitDy=0;entryX=0;entryY=0.5;entryDx=0;entryDy=0;" parent="1" source="8iHQZNITbpbjw60MoTCy-24" target="8iHQZNITbpbjw60MoTCy-25" edge="1">
          <mxGeometry width="50" height="50" relative="1" as="geometry">
            <mxPoint x="400" y="573.75" as="sourcePoint" />
            <mxPoint x="450" y="523.75" as="targetPoint" />
          </mxGeometry>
        </mxCell>
        <mxCell id="8iHQZNITbpbjw60MoTCy-30" value="&lt;span style=&quot;color: rgba(0, 0, 0, 0); font-family: monospace; font-size: 0px; text-align: start; background-color: rgb(251, 251, 251);&quot;&gt;%3CmxGraphModel%3E%3Croot%3E%3CmxCell%20id%3D%220%22%2F%3E%3CmxCell%20id%3D%221%22%20parent%3D%220%22%2F%3E%3CmxCell%20id%3D%222%22%20value%3D%22UPLOAD%20LOST%20ITEM_INFO%22%20style%3D%22edgeLabel%3Bhtml%3D1%3Balign%3Dcenter%3BverticalAlign%3Dmiddle%3Bresizable%3D0%3Bpoints%3D%5B%5D%3B%22%20vertex%3D%221%22%20connectable%3D%220%22%20parent%3D%221%22%3E%3CmxGeometry%20x%3D%22290.05704628648414%22%20y%3D%22269.5425227677471%22%20as%3D%22geometry%22%2F%3E%3C%2FmxCell%3E%3C%2Froot%3E%3C%2FmxGraphModel%3E&lt;/span&gt;" style="edgeLabel;html=1;align=center;verticalAlign=middle;resizable=0;points=[];" parent="8iHQZNITbpbjw60MoTCy-29" vertex="1" connectable="0">
          <mxGeometry x="-0.3154" y="-1" relative="1" as="geometry">
            <mxPoint as="offset" />
          </mxGeometry>
        </mxCell>
        <mxCell id="8iHQZNITbpbjw60MoTCy-31" value="ENTER LOGIN&lt;div&gt;&amp;nbsp;CREDENTIALS&lt;/div&gt;" style="edgeLabel;html=1;align=center;verticalAlign=middle;resizable=0;points=[];" parent="8iHQZNITbpbjw60MoTCy-29" vertex="1" connectable="0">
          <mxGeometry x="-0.1045" y="4" relative="1" as="geometry">
            <mxPoint x="2" y="-18" as="offset" />
          </mxGeometry>
        </mxCell>
        <mxCell id="8iHQZNITbpbjw60MoTCy-32" value="" style="endArrow=classic;html=1;rounded=0;exitX=0.999;exitY=0.364;exitDx=0;exitDy=0;exitPerimeter=0;entryX=0;entryY=0.5;entryDx=0;entryDy=0;" parent="1" source="8iHQZNITbpbjw60MoTCy-25" target="8iHQZNITbpbjw60MoTCy-40" edge="1">
          <mxGeometry width="50" height="50" relative="1" as="geometry">
            <mxPoint x="400" y="573.75" as="sourcePoint" />
            <mxPoint x="710" y="760" as="targetPoint" />
            <Array as="points">
              <mxPoint x="710" y="620" />
            </Array>
          </mxGeometry>
        </mxCell>
        <mxCell id="8iHQZNITbpbjw60MoTCy-33" value="if valid redirect to user dashboard" style="edgeLabel;html=1;align=center;verticalAlign=middle;resizable=0;points=[];rotation=0;" parent="8iHQZNITbpbjw60MoTCy-32" vertex="1" connectable="0">
          <mxGeometry x="0.2637" y="-1" relative="1" as="geometry">
            <mxPoint x="-25" y="-1" as="offset" />
          </mxGeometry>
        </mxCell>
        <mxCell id="8iHQZNITbpbjw60MoTCy-34" value="" style="endArrow=none;html=1;rounded=0;" parent="1" edge="1">
          <mxGeometry width="50" height="50" relative="1" as="geometry">
            <mxPoint x="250" y="520" as="sourcePoint" />
            <mxPoint x="360" y="520" as="targetPoint" />
          </mxGeometry>
        </mxCell>
        <mxCell id="8iHQZNITbpbjw60MoTCy-35" value="" style="endArrow=none;html=1;rounded=0;" parent="1" edge="1">
          <mxGeometry width="50" height="50" relative="1" as="geometry">
            <mxPoint x="255" y="549" as="sourcePoint" />
            <mxPoint x="360" y="550" as="targetPoint" />
          </mxGeometry>
        </mxCell>
        <mxCell id="8iHQZNITbpbjw60MoTCy-36" value="USERS" style="text;html=1;align=center;verticalAlign=middle;resizable=0;points=[];autosize=1;strokeColor=none;fillColor=none;" parent="1" vertex="1">
          <mxGeometry x="275" y="520" width="60" height="30" as="geometry" />
        </mxCell>
        <mxCell id="8iHQZNITbpbjw60MoTCy-37" value="" style="endArrow=classic;html=1;rounded=0;entryX=0.653;entryY=1.087;entryDx=0;entryDy=0;entryPerimeter=0;exitX=0.5;exitY=0;exitDx=0;exitDy=0;" parent="1" source="8iHQZNITbpbjw60MoTCy-24" target="8iHQZNITbpbjw60MoTCy-36" edge="1">
          <mxGeometry width="50" height="50" relative="1" as="geometry">
            <mxPoint x="370" y="660" as="sourcePoint" />
            <mxPoint x="420" y="610" as="targetPoint" />
          </mxGeometry>
        </mxCell>
        <mxCell id="8iHQZNITbpbjw60MoTCy-38" value="" style="endArrow=classic;html=1;rounded=0;" parent="1" edge="1">
          <mxGeometry width="50" height="50" relative="1" as="geometry">
            <mxPoint x="360" y="550" as="sourcePoint" />
            <mxPoint x="660" y="600" as="targetPoint" />
            <Array as="points">
              <mxPoint x="360" y="550" />
              <mxPoint x="360" y="530" />
              <mxPoint x="640" y="530" />
            </Array>
          </mxGeometry>
        </mxCell>
        <mxCell id="8iHQZNITbpbjw60MoTCy-39" value="User" style="rounded=0;whiteSpace=wrap;html=1;" parent="1" vertex="1">
          <mxGeometry y="603.75" width="120" height="60" as="geometry" />
        </mxCell>
        <mxCell id="8iHQZNITbpbjw60MoTCy-40" value="User" style="rounded=0;whiteSpace=wrap;html=1;" parent="1" vertex="1">
          <mxGeometry x="820" y="590" width="120" height="60" as="geometry" />
        </mxCell>
        <mxCell id="8iHQZNITbpbjw60MoTCy-44" style="edgeStyle=orthogonalEdgeStyle;rounded=0;orthogonalLoop=1;jettySize=auto;html=1;entryX=0;entryY=0.5;entryDx=0;entryDy=0;" parent="1" source="8iHQZNITbpbjw60MoTCy-42" target="8iHQZNITbpbjw60MoTCy-43" edge="1">
          <mxGeometry relative="1" as="geometry" />
        </mxCell>
        <mxCell id="8iHQZNITbpbjw60MoTCy-45" value="enter vehcle details" style="edgeLabel;html=1;align=center;verticalAlign=middle;resizable=0;points=[];" parent="8iHQZNITbpbjw60MoTCy-44" vertex="1" connectable="0">
          <mxGeometry x="-0.1068" y="-2" relative="1" as="geometry">
            <mxPoint as="offset" />
          </mxGeometry>
        </mxCell>
        <mxCell id="8iHQZNITbpbjw60MoTCy-42" value="User" style="rounded=0;whiteSpace=wrap;html=1;" parent="1" vertex="1">
          <mxGeometry y="760" width="120" height="60" as="geometry" />
        </mxCell>
        <mxCell id="8iHQZNITbpbjw60MoTCy-52" style="edgeStyle=orthogonalEdgeStyle;rounded=0;orthogonalLoop=1;jettySize=auto;html=1;" parent="1" source="8iHQZNITbpbjw60MoTCy-43" edge="1">
          <mxGeometry relative="1" as="geometry">
            <mxPoint x="315" y="910" as="targetPoint" />
          </mxGeometry>
        </mxCell>
        <mxCell id="8iHQZNITbpbjw60MoTCy-55" value="vehicle details" style="edgeLabel;html=1;align=center;verticalAlign=middle;resizable=0;points=[];" parent="8iHQZNITbpbjw60MoTCy-52" vertex="1" connectable="0">
          <mxGeometry x="-0.426" y="-3" relative="1" as="geometry">
            <mxPoint y="-1" as="offset" />
          </mxGeometry>
        </mxCell>
        <mxCell id="8iHQZNITbpbjw60MoTCy-58" style="edgeStyle=orthogonalEdgeStyle;rounded=0;orthogonalLoop=1;jettySize=auto;html=1;entryX=0;entryY=0.5;entryDx=0;entryDy=0;" parent="1" source="8iHQZNITbpbjw60MoTCy-43" target="8iHQZNITbpbjw60MoTCy-59" edge="1">
          <mxGeometry relative="1" as="geometry">
            <mxPoint x="460" y="792.5" as="targetPoint" />
          </mxGeometry>
        </mxCell>
        <mxCell id="8iHQZNITbpbjw60MoTCy-60" value="review details" style="edgeLabel;html=1;align=center;verticalAlign=middle;resizable=0;points=[];" parent="8iHQZNITbpbjw60MoTCy-58" vertex="1" connectable="0">
          <mxGeometry x="-0.145" relative="1" as="geometry">
            <mxPoint as="offset" />
          </mxGeometry>
        </mxCell>
        <mxCell id="8iHQZNITbpbjw60MoTCy-43" value="2.1&lt;div&gt;vehicle registration&lt;/div&gt;" style="ellipse;whiteSpace=wrap;html=1;aspect=fixed;" parent="1" vertex="1">
          <mxGeometry x="252.5" y="730" width="125" height="125" as="geometry" />
        </mxCell>
        <mxCell id="8iHQZNITbpbjw60MoTCy-50" value="" style="endArrow=none;html=1;rounded=0;" parent="1" edge="1">
          <mxGeometry width="50" height="50" relative="1" as="geometry">
            <mxPoint x="260" y="910" as="sourcePoint" />
            <mxPoint x="370" y="910" as="targetPoint" />
          </mxGeometry>
        </mxCell>
        <mxCell id="8iHQZNITbpbjw60MoTCy-51" value="" style="endArrow=none;html=1;rounded=0;" parent="1" edge="1">
          <mxGeometry width="50" height="50" relative="1" as="geometry">
            <mxPoint x="260" y="940" as="sourcePoint" />
            <mxPoint x="370" y="940" as="targetPoint" />
          </mxGeometry>
        </mxCell>
        <mxCell id="8iHQZNITbpbjw60MoTCy-53" value="Registration" style="text;html=1;align=center;verticalAlign=middle;resizable=0;points=[];autosize=1;strokeColor=none;fillColor=none;" parent="1" vertex="1">
          <mxGeometry x="270" y="908" width="90" height="30" as="geometry" />
        </mxCell>
        <mxCell id="8iHQZNITbpbjw60MoTCy-54" value="Admin" style="rounded=0;whiteSpace=wrap;html=1;" parent="1" vertex="1">
          <mxGeometry x="450" y="980" width="120" height="60" as="geometry" />
        </mxCell>
        <mxCell id="8iHQZNITbpbjw60MoTCy-56" style="edgeStyle=orthogonalEdgeStyle;rounded=0;orthogonalLoop=1;jettySize=auto;html=1;entryX=0.493;entryY=1.149;entryDx=0;entryDy=0;entryPerimeter=0;" parent="1" source="8iHQZNITbpbjw60MoTCy-54" target="8iHQZNITbpbjw60MoTCy-53" edge="1">
          <mxGeometry relative="1" as="geometry" />
        </mxCell>
        <mxCell id="8iHQZNITbpbjw60MoTCy-57" value="accepts or declines the registration" style="edgeLabel;html=1;align=center;verticalAlign=middle;resizable=0;points=[];" parent="8iHQZNITbpbjw60MoTCy-56" vertex="1" connectable="0">
          <mxGeometry x="0.0885" relative="1" as="geometry">
            <mxPoint as="offset" />
          </mxGeometry>
        </mxCell>
        <mxCell id="8iHQZNITbpbjw60MoTCy-64" style="edgeStyle=orthogonalEdgeStyle;rounded=0;orthogonalLoop=1;jettySize=auto;html=1;entryX=0;entryY=0.5;entryDx=0;entryDy=0;" parent="1" edge="1">
          <mxGeometry relative="1" as="geometry">
            <mxPoint x="710" y="791.91" as="targetPoint" />
            <mxPoint x="592.5" y="791.91" as="sourcePoint" />
          </mxGeometry>
        </mxCell>
        <mxCell id="8iHQZNITbpbjw60MoTCy-66" value="show details" style="edgeLabel;html=1;align=center;verticalAlign=middle;resizable=0;points=[];" parent="8iHQZNITbpbjw60MoTCy-64" vertex="1" connectable="0">
          <mxGeometry x="-0.2755" y="-2" relative="1" as="geometry">
            <mxPoint x="15" y="-4" as="offset" />
          </mxGeometry>
        </mxCell>
        <mxCell id="8iHQZNITbpbjw60MoTCy-59" value="2.2&lt;div&gt;vehicle details&lt;/div&gt;" style="ellipse;whiteSpace=wrap;html=1;aspect=fixed;" parent="1" vertex="1">
          <mxGeometry x="467.5" y="727.5" width="125" height="125" as="geometry" />
        </mxCell>
        <mxCell id="8iHQZNITbpbjw60MoTCy-62" style="edgeStyle=orthogonalEdgeStyle;rounded=0;orthogonalLoop=1;jettySize=auto;html=1;entryX=1.028;entryY=0.597;entryDx=0;entryDy=0;entryPerimeter=0;" parent="1" source="8iHQZNITbpbjw60MoTCy-59" target="8iHQZNITbpbjw60MoTCy-53" edge="1">
          <mxGeometry relative="1" as="geometry">
            <Array as="points">
              <mxPoint x="530" y="900" />
              <mxPoint x="362" y="900" />
            </Array>
          </mxGeometry>
        </mxCell>
        <mxCell id="8iHQZNITbpbjw60MoTCy-63" value="get vehicle details" style="edgeLabel;html=1;align=center;verticalAlign=middle;resizable=0;points=[];" parent="8iHQZNITbpbjw60MoTCy-62" vertex="1" connectable="0">
          <mxGeometry x="0.3423" y="-3" relative="1" as="geometry">
            <mxPoint x="-1" as="offset" />
          </mxGeometry>
        </mxCell>
        <mxCell id="8iHQZNITbpbjw60MoTCy-65" value="User" style="rounded=0;whiteSpace=wrap;html=1;" parent="1" vertex="1">
          <mxGeometry x="710" y="760" width="120" height="60" as="geometry" />
        </mxCell>
        <mxCell id="8iHQZNITbpbjw60MoTCy-68" style="edgeStyle=orthogonalEdgeStyle;rounded=0;orthogonalLoop=1;jettySize=auto;html=1;entryX=0;entryY=0.5;entryDx=0;entryDy=0;" parent="1" source="8iHQZNITbpbjw60MoTCy-70" target="8iHQZNITbpbjw60MoTCy-75" edge="1">
          <mxGeometry relative="1" as="geometry" />
        </mxCell>
        <mxCell id="8iHQZNITbpbjw60MoTCy-69" value="enter visitor details" style="edgeLabel;html=1;align=center;verticalAlign=middle;resizable=0;points=[];" parent="8iHQZNITbpbjw60MoTCy-68" vertex="1" connectable="0">
          <mxGeometry x="-0.1068" y="-2" relative="1" as="geometry">
            <mxPoint as="offset" />
          </mxGeometry>
        </mxCell>
        <mxCell id="8iHQZNITbpbjw60MoTCy-70" value="User" style="rounded=0;whiteSpace=wrap;html=1;" parent="1" vertex="1">
          <mxGeometry x="70" y="1322.5" width="120" height="60" as="geometry" />
        </mxCell>
        <mxCell id="8iHQZNITbpbjw60MoTCy-71" style="edgeStyle=orthogonalEdgeStyle;rounded=0;orthogonalLoop=1;jettySize=auto;html=1;" parent="1" source="8iHQZNITbpbjw60MoTCy-75" edge="1">
          <mxGeometry relative="1" as="geometry">
            <mxPoint x="385" y="1472.5" as="targetPoint" />
          </mxGeometry>
        </mxCell>
        <mxCell id="8iHQZNITbpbjw60MoTCy-72" value="visitor details" style="edgeLabel;html=1;align=center;verticalAlign=middle;resizable=0;points=[];" parent="8iHQZNITbpbjw60MoTCy-71" vertex="1" connectable="0">
          <mxGeometry x="-0.426" y="-3" relative="1" as="geometry">
            <mxPoint y="-1" as="offset" />
          </mxGeometry>
        </mxCell>
        <mxCell id="8iHQZNITbpbjw60MoTCy-73" style="edgeStyle=orthogonalEdgeStyle;rounded=0;orthogonalLoop=1;jettySize=auto;html=1;entryX=0;entryY=0.5;entryDx=0;entryDy=0;" parent="1" source="8iHQZNITbpbjw60MoTCy-75" target="8iHQZNITbpbjw60MoTCy-84" edge="1">
          <mxGeometry relative="1" as="geometry">
            <mxPoint x="530" y="1355" as="targetPoint" />
          </mxGeometry>
        </mxCell>
        <mxCell id="8iHQZNITbpbjw60MoTCy-74" value="review details" style="edgeLabel;html=1;align=center;verticalAlign=middle;resizable=0;points=[];" parent="8iHQZNITbpbjw60MoTCy-73" vertex="1" connectable="0">
          <mxGeometry x="-0.145" relative="1" as="geometry">
            <mxPoint as="offset" />
          </mxGeometry>
        </mxCell>
        <mxCell id="8iHQZNITbpbjw60MoTCy-75" value="3.1&lt;div&gt;vistor from&lt;/div&gt;" style="ellipse;whiteSpace=wrap;html=1;aspect=fixed;" parent="1" vertex="1">
          <mxGeometry x="322.5" y="1292.5" width="125" height="125" as="geometry" />
        </mxCell>
        <mxCell id="8iHQZNITbpbjw60MoTCy-76" value="" style="endArrow=none;html=1;rounded=0;" parent="1" edge="1">
          <mxGeometry width="50" height="50" relative="1" as="geometry">
            <mxPoint x="330" y="1472.5" as="sourcePoint" />
            <mxPoint x="440" y="1472.5" as="targetPoint" />
          </mxGeometry>
        </mxCell>
        <mxCell id="8iHQZNITbpbjw60MoTCy-77" value="" style="endArrow=none;html=1;rounded=0;" parent="1" edge="1">
          <mxGeometry width="50" height="50" relative="1" as="geometry">
            <mxPoint x="330" y="1502.5" as="sourcePoint" />
            <mxPoint x="440" y="1502.5" as="targetPoint" />
          </mxGeometry>
        </mxCell>
        <mxCell id="8iHQZNITbpbjw60MoTCy-78" value="Visitors" style="text;html=1;align=center;verticalAlign=middle;resizable=0;points=[];autosize=1;strokeColor=none;fillColor=none;" parent="1" vertex="1">
          <mxGeometry x="355" y="1470.5" width="60" height="30" as="geometry" />
        </mxCell>
        <mxCell id="8iHQZNITbpbjw60MoTCy-82" style="edgeStyle=orthogonalEdgeStyle;rounded=0;orthogonalLoop=1;jettySize=auto;html=1;entryX=0;entryY=0.5;entryDx=0;entryDy=0;" parent="1" edge="1">
          <mxGeometry relative="1" as="geometry">
            <mxPoint x="780" y="1354.4099999999999" as="targetPoint" />
            <mxPoint x="662.5" y="1354.4099999999999" as="sourcePoint" />
          </mxGeometry>
        </mxCell>
        <mxCell id="8iHQZNITbpbjw60MoTCy-83" value="show details" style="edgeLabel;html=1;align=center;verticalAlign=middle;resizable=0;points=[];" parent="8iHQZNITbpbjw60MoTCy-82" vertex="1" connectable="0">
          <mxGeometry x="-0.2755" y="-2" relative="1" as="geometry">
            <mxPoint x="15" y="-4" as="offset" />
          </mxGeometry>
        </mxCell>
        <mxCell id="8iHQZNITbpbjw60MoTCy-84" value="3.2&lt;div&gt;review visitor details&lt;/div&gt;" style="ellipse;whiteSpace=wrap;html=1;aspect=fixed;" parent="1" vertex="1">
          <mxGeometry x="537.5" y="1290" width="125" height="125" as="geometry" />
        </mxCell>
        <mxCell id="8iHQZNITbpbjw60MoTCy-85" style="edgeStyle=orthogonalEdgeStyle;rounded=0;orthogonalLoop=1;jettySize=auto;html=1;entryX=1.028;entryY=0.597;entryDx=0;entryDy=0;entryPerimeter=0;" parent="1" source="8iHQZNITbpbjw60MoTCy-84" target="8iHQZNITbpbjw60MoTCy-78" edge="1">
          <mxGeometry relative="1" as="geometry">
            <Array as="points">
              <mxPoint x="600" y="1462.5" />
              <mxPoint x="432" y="1462.5" />
            </Array>
          </mxGeometry>
        </mxCell>
        <mxCell id="8iHQZNITbpbjw60MoTCy-86" value="get visitor details" style="edgeLabel;html=1;align=center;verticalAlign=middle;resizable=0;points=[];" parent="8iHQZNITbpbjw60MoTCy-85" vertex="1" connectable="0">
          <mxGeometry x="0.3423" y="-3" relative="1" as="geometry">
            <mxPoint x="23" y="-10" as="offset" />
          </mxGeometry>
        </mxCell>
        <mxCell id="8iHQZNITbpbjw60MoTCy-87" value="User" style="rounded=0;whiteSpace=wrap;html=1;" parent="1" vertex="1">
          <mxGeometry x="780" y="1322.5" width="120" height="60" as="geometry" />
        </mxCell>
        <mxCell id="8iHQZNITbpbjw60MoTCy-91" style="edgeStyle=orthogonalEdgeStyle;rounded=0;orthogonalLoop=1;jettySize=auto;html=1;" parent="1" source="8iHQZNITbpbjw60MoTCy-88" edge="1">
          <mxGeometry relative="1" as="geometry">
            <mxPoint x="560" y="1660" as="targetPoint" />
          </mxGeometry>
        </mxCell>
        <mxCell id="8iHQZNITbpbjw60MoTCy-92" value="note vehicle entry" style="edgeLabel;html=1;align=center;verticalAlign=middle;resizable=0;points=[];" parent="8iHQZNITbpbjw60MoTCy-91" vertex="1" connectable="0">
          <mxGeometry x="-0.1259" y="1" relative="1" as="geometry">
            <mxPoint as="offset" />
          </mxGeometry>
        </mxCell>
        <mxCell id="8iHQZNITbpbjw60MoTCy-88" value="security" style="rounded=0;whiteSpace=wrap;html=1;" parent="1" vertex="1">
          <mxGeometry x="320" y="1630" width="120" height="60" as="geometry" />
        </mxCell>
        <mxCell id="8iHQZNITbpbjw60MoTCy-89" style="edgeStyle=orthogonalEdgeStyle;rounded=0;orthogonalLoop=1;jettySize=auto;html=1;entryX=0.345;entryY=1.04;entryDx=0;entryDy=0;entryPerimeter=0;" parent="1" source="8iHQZNITbpbjw60MoTCy-88" target="8iHQZNITbpbjw60MoTCy-78" edge="1">
          <mxGeometry relative="1" as="geometry" />
        </mxCell>
        <mxCell id="8iHQZNITbpbjw60MoTCy-90" value="get vistor details" style="edgeLabel;html=1;align=center;verticalAlign=middle;resizable=0;points=[];" parent="8iHQZNITbpbjw60MoTCy-89" vertex="1" connectable="0">
          <mxGeometry x="0.0559" relative="1" as="geometry">
            <mxPoint as="offset" />
          </mxGeometry>
        </mxCell>
        <mxCell id="8iHQZNITbpbjw60MoTCy-98" style="edgeStyle=orthogonalEdgeStyle;rounded=0;orthogonalLoop=1;jettySize=auto;html=1;" parent="1" source="8iHQZNITbpbjw60MoTCy-93" target="8iHQZNITbpbjw60MoTCy-95" edge="1">
          <mxGeometry relative="1" as="geometry" />
        </mxCell>
        <mxCell id="8iHQZNITbpbjw60MoTCy-99" value="vehicle details" style="edgeLabel;html=1;align=center;verticalAlign=middle;resizable=0;points=[];" parent="8iHQZNITbpbjw60MoTCy-98" vertex="1" connectable="0">
          <mxGeometry x="-0.0939" y="4" relative="1" as="geometry">
            <mxPoint as="offset" />
          </mxGeometry>
        </mxCell>
        <mxCell id="8iHQZNITbpbjw60MoTCy-93" value="3.3&lt;div&gt;vehicle entry&lt;/div&gt;" style="ellipse;whiteSpace=wrap;html=1;aspect=fixed;" parent="1" vertex="1">
          <mxGeometry x="570" y="1597.5" width="125" height="125" as="geometry" />
        </mxCell>
        <mxCell id="8iHQZNITbpbjw60MoTCy-100" style="edgeStyle=orthogonalEdgeStyle;rounded=0;orthogonalLoop=1;jettySize=auto;html=1;entryX=0;entryY=1;entryDx=0;entryDy=0;" parent="1" source="8iHQZNITbpbjw60MoTCy-95" target="8iHQZNITbpbjw60MoTCy-87" edge="1">
          <mxGeometry relative="1" as="geometry" />
        </mxCell>
        <mxCell id="8iHQZNITbpbjw60MoTCy-101" value="give detais" style="edgeLabel;html=1;align=center;verticalAlign=middle;resizable=0;points=[];" parent="8iHQZNITbpbjw60MoTCy-100" vertex="1" connectable="0">
          <mxGeometry x="0.1361" y="3" relative="1" as="geometry">
            <mxPoint y="1" as="offset" />
          </mxGeometry>
        </mxCell>
        <mxCell id="8iHQZNITbpbjw60MoTCy-95" value="Vehicles" style="text;html=1;align=center;verticalAlign=middle;resizable=0;points=[];autosize=1;strokeColor=none;fillColor=none;" parent="1" vertex="1">
          <mxGeometry x="597.5" y="1500.5" width="70" height="30" as="geometry" />
        </mxCell>
        <mxCell id="8iHQZNITbpbjw60MoTCy-96" value="" style="endArrow=none;html=1;rounded=0;" parent="1" edge="1">
          <mxGeometry width="50" height="50" relative="1" as="geometry">
            <mxPoint x="577.5" y="1500.5" as="sourcePoint" />
            <mxPoint x="687.5" y="1500.5" as="targetPoint" />
          </mxGeometry>
        </mxCell>
        <mxCell id="8iHQZNITbpbjw60MoTCy-97" value="" style="endArrow=none;html=1;rounded=0;" parent="1" edge="1">
          <mxGeometry width="50" height="50" relative="1" as="geometry">
            <mxPoint x="577.5" y="1530.5" as="sourcePoint" />
            <mxPoint x="687.5" y="1530.5" as="targetPoint" />
          </mxGeometry>
        </mxCell>
        <mxCell id="8iHQZNITbpbjw60MoTCy-106" style="edgeStyle=orthogonalEdgeStyle;rounded=0;orthogonalLoop=1;jettySize=auto;html=1;" parent="1" source="8iHQZNITbpbjw60MoTCy-103" target="8iHQZNITbpbjw60MoTCy-110" edge="1">
          <mxGeometry relative="1" as="geometry">
            <mxPoint x="600" y="1130" as="targetPoint" />
          </mxGeometry>
        </mxCell>
        <mxCell id="8iHQZNITbpbjw60MoTCy-107" value="note vehicle entry" style="edgeLabel;html=1;align=center;verticalAlign=middle;resizable=0;points=[];" parent="8iHQZNITbpbjw60MoTCy-106" vertex="1" connectable="0">
          <mxGeometry x="-0.159" relative="1" as="geometry">
            <mxPoint as="offset" />
          </mxGeometry>
        </mxCell>
        <mxCell id="8iHQZNITbpbjw60MoTCy-103" value="Security" style="rounded=0;whiteSpace=wrap;html=1;" parent="1" vertex="1">
          <mxGeometry x="252.5" y="1100" width="120" height="60" as="geometry" />
        </mxCell>
        <mxCell id="8iHQZNITbpbjw60MoTCy-104" style="edgeStyle=orthogonalEdgeStyle;rounded=0;orthogonalLoop=1;jettySize=auto;html=1;entryX=-0.047;entryY=0.712;entryDx=0;entryDy=0;entryPerimeter=0;" parent="1" source="8iHQZNITbpbjw60MoTCy-103" target="8iHQZNITbpbjw60MoTCy-53" edge="1">
          <mxGeometry relative="1" as="geometry">
            <Array as="points">
              <mxPoint x="313" y="1070" />
              <mxPoint x="200" y="1070" />
              <mxPoint x="200" y="929" />
            </Array>
          </mxGeometry>
        </mxCell>
        <mxCell id="8iHQZNITbpbjw60MoTCy-105" value="get vehicle details" style="edgeLabel;html=1;align=center;verticalAlign=middle;resizable=0;points=[];" parent="8iHQZNITbpbjw60MoTCy-104" vertex="1" connectable="0">
          <mxGeometry x="0.1262" y="4" relative="1" as="geometry">
            <mxPoint y="1" as="offset" />
          </mxGeometry>
        </mxCell>
        <mxCell id="8iHQZNITbpbjw60MoTCy-108" style="edgeStyle=orthogonalEdgeStyle;rounded=0;orthogonalLoop=1;jettySize=auto;html=1;" parent="1" source="8iHQZNITbpbjw60MoTCy-110" target="8iHQZNITbpbjw60MoTCy-111" edge="1">
          <mxGeometry relative="1" as="geometry" />
        </mxCell>
        <mxCell id="8iHQZNITbpbjw60MoTCy-109" value="vehicle details" style="edgeLabel;html=1;align=center;verticalAlign=middle;resizable=0;points=[];" parent="8iHQZNITbpbjw60MoTCy-108" vertex="1" connectable="0">
          <mxGeometry x="-0.0939" y="4" relative="1" as="geometry">
            <mxPoint as="offset" />
          </mxGeometry>
        </mxCell>
        <mxCell id="8iHQZNITbpbjw60MoTCy-110" value="3.3&lt;div&gt;vehicle entry&lt;/div&gt;" style="ellipse;whiteSpace=wrap;html=1;aspect=fixed;" parent="1" vertex="1">
          <mxGeometry x="602.5" y="1077" width="125" height="125" as="geometry" />
        </mxCell>
        <mxCell id="8iHQZNITbpbjw60MoTCy-114" style="edgeStyle=orthogonalEdgeStyle;rounded=0;orthogonalLoop=1;jettySize=auto;html=1;entryX=0;entryY=1;entryDx=0;entryDy=0;" parent="1" source="8iHQZNITbpbjw60MoTCy-111" target="8iHQZNITbpbjw60MoTCy-65" edge="1">
          <mxGeometry relative="1" as="geometry" />
        </mxCell>
        <mxCell id="8iHQZNITbpbjw60MoTCy-115" value="give vehicle details" style="edgeLabel;html=1;align=center;verticalAlign=middle;resizable=0;points=[];" parent="8iHQZNITbpbjw60MoTCy-114" vertex="1" connectable="0">
          <mxGeometry x="0.421" y="2" relative="1" as="geometry">
            <mxPoint as="offset" />
          </mxGeometry>
        </mxCell>
        <mxCell id="8iHQZNITbpbjw60MoTCy-111" value="Vehicles" style="text;html=1;align=center;verticalAlign=middle;resizable=0;points=[];autosize=1;strokeColor=none;fillColor=none;" parent="1" vertex="1">
          <mxGeometry x="630" y="980" width="70" height="30" as="geometry" />
        </mxCell>
        <mxCell id="8iHQZNITbpbjw60MoTCy-112" value="" style="endArrow=none;html=1;rounded=0;" parent="1" edge="1">
          <mxGeometry width="50" height="50" relative="1" as="geometry">
            <mxPoint x="610" y="980" as="sourcePoint" />
            <mxPoint x="720" y="980" as="targetPoint" />
          </mxGeometry>
        </mxCell>
        <mxCell id="8iHQZNITbpbjw60MoTCy-113" value="" style="endArrow=none;html=1;rounded=0;" parent="1" edge="1">
          <mxGeometry width="50" height="50" relative="1" as="geometry">
            <mxPoint x="610" y="1010" as="sourcePoint" />
            <mxPoint x="720" y="1010" as="targetPoint" />
          </mxGeometry>
        </mxCell>
        <mxCell id="a99q0NmHQgWk5nQDxp5Y-2" style="edgeStyle=orthogonalEdgeStyle;rounded=0;orthogonalLoop=1;jettySize=auto;html=1;entryX=0;entryY=0.5;entryDx=0;entryDy=0;" edge="1" parent="1" source="a99q0NmHQgWk5nQDxp5Y-1" target="8iHQZNITbpbjw60MoTCy-20">
          <mxGeometry relative="1" as="geometry" />
        </mxCell>
        <mxCell id="a99q0NmHQgWk5nQDxp5Y-3" value="view vehicle data" style="edgeLabel;html=1;align=center;verticalAlign=middle;resizable=0;points=[];" vertex="1" connectable="0" parent="a99q0NmHQgWk5nQDxp5Y-2">
          <mxGeometry x="-0.2279" y="1" relative="1" as="geometry">
            <mxPoint as="offset" />
          </mxGeometry>
        </mxCell>
        <mxCell id="a99q0NmHQgWk5nQDxp5Y-1" value="4.0&lt;div&gt;vehicle details&lt;/div&gt;" style="ellipse;whiteSpace=wrap;html=1;aspect=fixed;" vertex="1" parent="1">
          <mxGeometry x="890" y="315" width="110" height="110" as="geometry" />
        </mxCell>
        <mxCell id="a99q0NmHQgWk5nQDxp5Y-8" style="edgeStyle=orthogonalEdgeStyle;rounded=0;orthogonalLoop=1;jettySize=auto;html=1;entryX=0;entryY=0.5;entryDx=0;entryDy=0;" edge="1" parent="1" source="a99q0NmHQgWk5nQDxp5Y-4" target="a99q0NmHQgWk5nQDxp5Y-5">
          <mxGeometry relative="1" as="geometry" />
        </mxCell>
        <mxCell id="a99q0NmHQgWk5nQDxp5Y-17" value="user details" style="edgeLabel;html=1;align=center;verticalAlign=middle;resizable=0;points=[];" vertex="1" connectable="0" parent="a99q0NmHQgWk5nQDxp5Y-8">
          <mxGeometry x="-0.0603" relative="1" as="geometry">
            <mxPoint as="offset" />
          </mxGeometry>
        </mxCell>
        <mxCell id="a99q0NmHQgWk5nQDxp5Y-4" value="User" style="rounded=0;whiteSpace=wrap;html=1;" vertex="1" parent="1">
          <mxGeometry x="60" y="1762.5" width="120" height="60" as="geometry" />
        </mxCell>
        <mxCell id="a99q0NmHQgWk5nQDxp5Y-9" style="edgeStyle=orthogonalEdgeStyle;rounded=0;orthogonalLoop=1;jettySize=auto;html=1;" edge="1" parent="1" source="a99q0NmHQgWk5nQDxp5Y-5" target="a99q0NmHQgWk5nQDxp5Y-6">
          <mxGeometry relative="1" as="geometry" />
        </mxCell>
        <mxCell id="a99q0NmHQgWk5nQDxp5Y-22" value="user detaisl" style="edgeLabel;html=1;align=center;verticalAlign=middle;resizable=0;points=[];" vertex="1" connectable="0" parent="a99q0NmHQgWk5nQDxp5Y-9">
          <mxGeometry x="-0.113" y="2" relative="1" as="geometry">
            <mxPoint as="offset" />
          </mxGeometry>
        </mxCell>
        <mxCell id="a99q0NmHQgWk5nQDxp5Y-5" value="4&lt;span style=&quot;color: rgba(0, 0, 0, 0); font-family: monospace; font-size: 0px; text-align: start; text-wrap: nowrap;&quot;&gt;%3CmxGraphModel%3E%3Croot%3E%3CmxCell%20id%3D%220%22%2F%3E%3CmxCell%20id%3D%221%22%20parent%3D%220%22%2F%3E%3CmxCell%20id%3D%222%22%20value%3D%223.1%26lt%3Bdiv%26gt%3Bvistor%20from%26lt%3B%2Fdiv%26gt%3B%22%20style%3D%22ellipse%3BwhiteSpace%3Dwrap%3Bhtml%3D1%3Baspect%3Dfixed%3B%22%20vertex%3D%221%22%20parent%3D%221%22%3E%3CmxGeometry%20x%3D%22322.5%22%20y%3D%221292.5%22%20width%3D%22125%22%20height%3D%22125%22%20as%3D%22geometry%22%2F%3E%3C%2FmxCell%3E%3C%2Froot%3E%3C%2FmxGraphModel%3E&lt;/span&gt;.1&lt;div&gt;My vehicles&lt;/div&gt;" style="ellipse;whiteSpace=wrap;html=1;aspect=fixed;" vertex="1" parent="1">
          <mxGeometry x="290" y="1730" width="125" height="125" as="geometry" />
        </mxCell>
        <mxCell id="a99q0NmHQgWk5nQDxp5Y-10" style="edgeStyle=orthogonalEdgeStyle;rounded=0;orthogonalLoop=1;jettySize=auto;html=1;" edge="1" parent="1" source="a99q0NmHQgWk5nQDxp5Y-6" target="a99q0NmHQgWk5nQDxp5Y-7">
          <mxGeometry relative="1" as="geometry" />
        </mxCell>
        <mxCell id="a99q0NmHQgWk5nQDxp5Y-23" value="vehicle records" style="edgeLabel;html=1;align=center;verticalAlign=middle;resizable=0;points=[];" vertex="1" connectable="0" parent="a99q0NmHQgWk5nQDxp5Y-10">
          <mxGeometry x="-0.1628" relative="1" as="geometry">
            <mxPoint as="offset" />
          </mxGeometry>
        </mxCell>
        <mxCell id="a99q0NmHQgWk5nQDxp5Y-6" value="4.2&lt;div&gt;visitor vehicles&lt;/div&gt;" style="ellipse;whiteSpace=wrap;html=1;aspect=fixed;" vertex="1" parent="1">
          <mxGeometry x="537.5" y="1730" width="125" height="125" as="geometry" />
        </mxCell>
        <mxCell id="a99q0NmHQgWk5nQDxp5Y-7" value="User" style="rounded=0;whiteSpace=wrap;html=1;" vertex="1" parent="1">
          <mxGeometry x="780" y="1762.5" width="120" height="60" as="geometry" />
        </mxCell>
        <mxCell id="a99q0NmHQgWk5nQDxp5Y-18" style="edgeStyle=orthogonalEdgeStyle;rounded=0;orthogonalLoop=1;jettySize=auto;html=1;entryX=0.5;entryY=1;entryDx=0;entryDy=0;" edge="1" parent="1" source="a99q0NmHQgWk5nQDxp5Y-11" target="a99q0NmHQgWk5nQDxp5Y-5">
          <mxGeometry relative="1" as="geometry" />
        </mxCell>
        <mxCell id="a99q0NmHQgWk5nQDxp5Y-19" value="get vehicle details" style="edgeLabel;html=1;align=center;verticalAlign=middle;resizable=0;points=[];" vertex="1" connectable="0" parent="a99q0NmHQgWk5nQDxp5Y-18">
          <mxGeometry x="0.2037" y="5" relative="1" as="geometry">
            <mxPoint x="-2" y="3" as="offset" />
          </mxGeometry>
        </mxCell>
        <mxCell id="a99q0NmHQgWk5nQDxp5Y-11" value="Vehicles" style="text;html=1;align=center;verticalAlign=middle;resizable=0;points=[];autosize=1;strokeColor=none;fillColor=none;" vertex="1" parent="1">
          <mxGeometry x="310" y="1980" width="70" height="30" as="geometry" />
        </mxCell>
        <mxCell id="a99q0NmHQgWk5nQDxp5Y-12" value="" style="endArrow=none;html=1;rounded=0;" edge="1" parent="1">
          <mxGeometry width="50" height="50" relative="1" as="geometry">
            <mxPoint x="290" y="1980" as="sourcePoint" />
            <mxPoint x="400" y="1980" as="targetPoint" />
          </mxGeometry>
        </mxCell>
        <mxCell id="a99q0NmHQgWk5nQDxp5Y-13" value="" style="endArrow=none;html=1;rounded=0;" edge="1" parent="1">
          <mxGeometry width="50" height="50" relative="1" as="geometry">
            <mxPoint x="290" y="2010" as="sourcePoint" />
            <mxPoint x="400" y="2010" as="targetPoint" />
          </mxGeometry>
        </mxCell>
        <mxCell id="a99q0NmHQgWk5nQDxp5Y-14" value="" style="endArrow=none;html=1;rounded=0;" edge="1" parent="1">
          <mxGeometry width="50" height="50" relative="1" as="geometry">
            <mxPoint x="540" y="1972" as="sourcePoint" />
            <mxPoint x="650" y="1972" as="targetPoint" />
          </mxGeometry>
        </mxCell>
        <mxCell id="a99q0NmHQgWk5nQDxp5Y-15" value="" style="endArrow=none;html=1;rounded=0;" edge="1" parent="1">
          <mxGeometry width="50" height="50" relative="1" as="geometry">
            <mxPoint x="540" y="2002" as="sourcePoint" />
            <mxPoint x="650" y="2002" as="targetPoint" />
          </mxGeometry>
        </mxCell>
        <mxCell id="a99q0NmHQgWk5nQDxp5Y-20" style="edgeStyle=orthogonalEdgeStyle;rounded=0;orthogonalLoop=1;jettySize=auto;html=1;entryX=0.5;entryY=1;entryDx=0;entryDy=0;" edge="1" parent="1" source="a99q0NmHQgWk5nQDxp5Y-16" target="a99q0NmHQgWk5nQDxp5Y-6">
          <mxGeometry relative="1" as="geometry" />
        </mxCell>
        <mxCell id="a99q0NmHQgWk5nQDxp5Y-21" value="get visitor details" style="edgeLabel;html=1;align=center;verticalAlign=middle;resizable=0;points=[];" vertex="1" connectable="0" parent="a99q0NmHQgWk5nQDxp5Y-20">
          <mxGeometry x="-0.0417" y="2" relative="1" as="geometry">
            <mxPoint x="-1" y="1" as="offset" />
          </mxGeometry>
        </mxCell>
        <mxCell id="a99q0NmHQgWk5nQDxp5Y-16" value="Visitors" style="text;html=1;align=center;verticalAlign=middle;resizable=0;points=[];autosize=1;strokeColor=none;fillColor=none;" vertex="1" parent="1">
          <mxGeometry x="565" y="1970" width="60" height="30" as="geometry" />
        </mxCell>
      </root>
    </mxGraphModel>
  </diagram>
</mxfile>
